<?xml version="1.0" standalone="no"?>
<!DOCTYPE svg PUBLIC "-//W3C//DTD SVG 20010904//EN"
 "http://www.w3.org/TR/2001/REC-SVG-20010904/DTD/svg10.dtd">
<svg version="1.0" xmlns="http://www.w3.org/2000/svg"
 width="500.000000pt" height="500.000000pt" viewBox="0 0 500.000000 500.000000"
 preserveAspectRatio="xMidYMid meet">

<g transform="translate(0.000000,500.000000) scale(0.100000,-0.100000)"
fill="#000000" stroke="none">
<path d="M170 3715 l0 -1285 300 0 300 0 0 188 0 187 864 508 c476 279 870
507 877 507 7 0 403 -226 881 -501 l868 -502 0 -193 0 -194 285 0 285 0 0
1285 0 1285 -2330 0 -2330 0 0 -1285z"/>
<path d="M1935 2989 c-314 -176 -604 -339 -645 -363 l-75 -42 -3 -132 c-1 -73
0 -132 3 -132 3 0 47 24 98 53 l92 52 1088 5 1088 5 -423 247 c-233 136 -466
273 -518 305 l-95 58 -5 130 c-4 105 -8 130 -20 132 -8 2 -271 -142 -585 -318z"/>
</g>
</svg>
